<?xml version="1.0" standalone="no"?>
<!DOCTYPE svg PUBLIC "-//W3C//DTD SVG 20010904//EN"
 "http://www.w3.org/TR/2001/REC-SVG-20010904/DTD/svg10.dtd">
<svg version="1.0" xmlns="http://www.w3.org/2000/svg"
 width="360.000000pt" height="330.000000pt" viewBox="0 0 360.000000 330.000000"
 preserveAspectRatio="xMidYMid meet">

<g transform="translate(0.000000,330.000000) scale(0.100000,-0.100000)"
fill="#000000" stroke="none">
<path d="M0 1650 l0 -1650 1628 0 1627 0 13 21 c10 15 20 20 39 16 33 -6 143
57 143 83 0 21 31 50 53 50 10 0 26 -5 36 -12 17 -10 23 -8 40 13 20 24 20 30
21 1577 l0 1552 -1800 0 -1800 0 0 -1650z m2374 1235 c263 -69 445 -289 462
-560 7 -114 -12 -210 -62 -312 -38 -75 -110 -164 -167 -205 l-30 -22 -24 30
c-76 93 -100 116 -146 147 l-51 34 -51 -28 c-27 -16 -57 -32 -65 -35 -9 -3
-24 -43 -40 -107 l-25 -102 -139 3 c-111 3 -137 1 -134 -10 4 -10 37 -14 132
-16 125 -3 127 -3 124 -25 -2 -14 -11 -23 -27 -25 l-23 -4 21 -14 c32 -23 29
-72 -5 -85 -32 -12 -74 11 -74 41 0 20 24 49 43 52 7 1 -36 4 -95 7 -124 7
-132 12 -153 92 -7 30 -27 104 -43 164 -16 61 -32 122 -36 138 -6 25 -10 27
-56 27 -44 0 -50 3 -50 20 0 19 5 21 67 18 l66 -3 11 -40 12 -40 156 -3 157
-3 7 47 c13 89 -14 281 -39 270 -7 -2 -36 -13 -64 -22 l-53 -18 0 -48 c0 -41
-3 -48 -20 -48 -17 0 -20 7 -20 41 l0 42 -47 -7 c-27 -4 -87 -9 -135 -13 l-88
-6 0 -28 c0 -24 -4 -29 -25 -29 -21 0 -25 5 -25 30 0 30 0 30 -57 30 -32 0
-90 6 -130 14 -40 7 -75 11 -78 8 -3 -3 -5 -23 -5 -44 0 -31 -3 -38 -20 -38
-17 0 -20 7 -20 48 l0 47 -67 24 c-38 13 -73 26 -79 28 -13 5 -38 -53 -48
-109 -5 -29 -12 -38 -27 -38 -19 0 -20 4 -14 43 4 23 18 68 30 99 76 189 242
321 447 355 81 14 101 14 183 1 56 -9 116 -27 156 -46 35 -17 65 -29 66 -28 2
2 -27 31 -63 66 l-67 64 34 29 c44 36 139 83 209 101 73 19 231 20 304 1z
m-1101 -945 c14 -11 39 -20 55 -20 24 0 38 -10 73 -55 l44 -54 168 -1 c160 0
167 -1 167 -20 0 -19 -7 -20 -128 -20 l-128 0 -48 -55 c-44 -51 -50 -55 -92
-55 -30 0 -54 -7 -74 -21 -56 -42 -123 9 -86 66 19 29 66 34 86 10 8 -9 30
-15 59 -15 41 0 49 4 74 35 l28 35 -151 0 c-90 0 -150 -4 -150 -10 0 -16 -39
-31 -66 -24 -34 9 -50 49 -30 79 21 31 51 37 80 14 20 -16 41 -19 131 -19
l108 0 -25 33 c-17 22 -35 33 -57 35 -18 2 -31 -1 -31 -8 0 -6 -12 -15 -26
-21 -57 -21 -99 47 -57 93 21 23 44 23 76 -2z m467 -75 c0 -25 -2 -26 -57 -23
-45 2 -59 7 -61 20 -3 17 17 23 86 27 28 1 32 -2 32 -24z m-150 -5 c0 -13 -7
-20 -20 -20 -13 0 -20 7 -20 20 0 13 7 20 20 20 13 0 20 -7 20 -20z m230 -145
l0 -25 -110 0 c-100 0 -110 2 -110 18 0 10 3 22 7 25 3 4 53 7 110 7 l103 0 0
-25z m154 -91 c21 -21 20 -40 -4 -64 -23 -23 -40 -25 -62 -7 -24 19 -28 43
-12 66 18 25 56 27 78 5z m-1227 -506 c45 -43 23 -130 -37 -143 -40 -9 -65 1
-78 31 -15 31 -15 34 -1 34 5 0 8 -4 5 -9 -3 -5 1 -14 9 -21 12 -10 21 -10 38
-1 l22 12 -23 -5 c-30 -6 -20 8 18 24 16 7 30 16 30 21 0 13 -18 20 -25 9 -10
-16 -25 -12 -19 5 8 19 -16 20 -42 0 -26 -20 -34 -19 -34 5 0 56 91 81 137 38z"/>
<path d="M1585 2664 c-129 -26 -132 -27 -100 -36 59 -17 350 -9 331 9 -19 19
-177 37 -231 27z"/>
<path d="M1852 2602 c-28 -8 -27 -16 12 -69 33 -44 49 -47 120 -19 l28 11 -60
43 c-33 23 -64 42 -69 41 -4 -1 -18 -4 -31 -7z"/>
<path d="M1330 2563 l-55 -37 30 -12 c74 -30 87 -27 127 25 36 48 36 49 15 55
-42 11 -63 6 -117 -31z"/>
<path d="M1481 2535 c-24 -26 -41 -49 -38 -51 2 -3 43 -8 91 -12 l87 -8 -3 56
-3 55 -46 3 c-43 3 -48 0 -88 -43z"/>
<path d="M1677 2573 c-4 -3 -7 -28 -7 -55 l0 -48 63 1 c34 1 75 4 92 8 l29 6
-45 48 c-40 41 -51 47 -86 47 -22 0 -43 -3 -46 -7z"/>
<path d="M1210 2446 c-16 -25 -30 -49 -30 -53 0 -9 114 -53 135 -53 9 0 42 77
45 104 1 7 -95 44 -117 46 -1 0 -16 -20 -33 -44z"/>
<path d="M1982 2470 c-29 -9 -53 -20 -52 -26 0 -9 31 -96 36 -102 5 -7 113 28
119 38 9 15 -13 75 -33 92 -15 13 -23 13 -70 -2z"/>
<path d="M1390 2398 c-32 -70 -30 -73 58 -86 42 -7 98 -12 125 -12 l47 0 0 59
c0 33 -3 62 -7 64 -5 2 -52 8 -106 11 l-97 7 -20 -43z"/>
<path d="M1775 2433 c-107 -9 -105 -7 -105 -73 l0 -60 43 0 c78 0 207 22 207
36 0 7 -9 33 -20 58 -21 50 -16 48 -125 39z"/>
<path d="M2155 2052 c-15 -15 -2 -32 25 -32 17 0 30 3 30 8 0 10 -48 31 -55
24z"/>
<path d="M2220 2049 c0 -8 9 -25 19 -38 17 -22 20 -23 49 -10 33 14 33 29 1
29 -11 0 -31 7 -44 16 -20 13 -25 13 -25 3z"/>
<path d="M1840 1958 c0 -7 11 -51 24 -98 l23 -85 49 -3 c27 -2 81 -1 121 3 70
6 72 7 82 38 5 18 12 53 16 78 10 75 0 79 -171 79 -109 0 -144 -3 -144 -12z"/>
<path d="M1226 1913 c-11 -11 -6 -23 9 -23 8 0 15 4 15 9 0 13 -16 22 -24 14z"/>
<path d="M1110 1785 c0 -8 4 -15 9 -15 5 0 11 7 15 15 3 9 0 15 -9 15 -8 0
-15 -7 -15 -15z"/>
<path d="M1255 1681 c-7 -12 12 -24 25 -16 11 7 4 25 -10 25 -5 0 -11 -4 -15
-9z"/>
<path d="M3590 129 c0 -18 -3 -19 -15 -9 -8 7 -22 10 -30 6 -9 -3 -24 0 -35 6
-26 16 -36 4 -22 -28 7 -14 8 -23 2 -19 -8 5 -43 -7 -58 -20 -10 -9 31 -65 48
-65 16 0 19 5 14 30 -8 36 14 42 34 10 12 -19 14 -19 42 -5 26 14 29 20 28 65
0 27 -2 50 -4 50 -2 0 -4 -10 -4 -21z"/>
<path d="M3396 41 c-11 -18 6 -41 31 -41 24 0 25 1 11 22 -17 25 -34 33 -42
19z"/>
<path d="M3360 20 c-17 -11 -8 -23 14 -18 9 2 12 8 8 15 -5 8 -13 9 -22 3z"/>
<path d="M3285 10 c-3 -5 1 -10 10 -10 9 0 13 5 10 10 -3 6 -8 10 -10 10 -2 0
-7 -4 -10 -10z"/>
<path d="M3585 10 c-3 -5 -1 -10 4 -10 6 0 11 5 11 10 0 6 -2 10 -4 10 -3 0
-8 -4 -11 -10z"/>
</g>
</svg>
